<?xml version="1.0" encoding="UTF-8" standalone="no"?>
<!DOCTYPE svg PUBLIC "-//W3C//DTD SVG 1.1//EN" "http://www.w3.org/Graphics/SVG/1.1/DTD/svg11.dtd">
<svg width="100%" height="100%" viewBox="0 0 512 512" version="1.1" xmlns="http://www.w3.org/2000/svg" xmlns:xlink="http://www.w3.org/1999/xlink" xml:space="preserve" xmlns:serif="http://www.serif.com/" style="fill-rule:evenodd;clip-rule:evenodd;stroke-linejoin:round;stroke-miterlimit:1.41421;">
    <g transform="matrix(3.31409,0,0,3.37262,-262.332,-135.599)">
        <ellipse cx="156.402" cy="116.111" rx="77.246" ry="75.905" style="fill:rgb(190,190,190);"/>
    </g>
    <g transform="matrix(3.31409,0,0,3.37262,-262.332,-135.599)">
        <clipPath id="_clip1">
            <rect x="79.156" y="40.206" width="52.931" height="75.905"/>
        </clipPath>
        <g clip-path="url(#_clip1)">
            <ellipse cx="156.402" cy="116.111" rx="77.246" ry="75.905" style="fill:rgb(190,0,0);"/>
        </g>
    </g>
    <g transform="matrix(3.31409,0,0,3.37262,-262.332,-135.599)">
        <clipPath id="_clip2">
            <rect x="132.088" y="40.206" width="50.063" height="75.905"/>
        </clipPath>
        <g clip-path="url(#_clip2)">
            <ellipse cx="156.402" cy="116.111" rx="77.246" ry="75.905" style="fill:rgb(0,190,0);"/>
        </g>
    </g>
    <g transform="matrix(3.31409,0,0,3.37262,-262.332,-135.599)">
        <clipPath id="_clip3">
            <rect x="182.151" y="40.206" width="51.497" height="75.905"/>
        </clipPath>
        <g clip-path="url(#_clip3)">
            <ellipse cx="156.402" cy="116.111" rx="77.246" ry="75.905" style="fill:rgb(0,0,190);"/>
        </g>
    </g>
    <g transform="matrix(1,0,0,1,-46.2222,2.13163e-14)">
        <text x="107.934px" y="215.79px" style="font-family:'ArialMT', 'Arial', sans-serif;font-size:72px;fill:white;">R</text>
    </g>
    <g transform="matrix(1,0,0,1,129.198,-4.9738e-14)">
        <text x="101.177px" y="215.79px" style="font-family:'ArialMT', 'Arial', sans-serif;font-size:72px;fill:white;">G</text>
    </g>
    <g transform="matrix(1,0,0,1,295.111,-5.68434e-14)">
        <text x="107.544px" y="215.79px" style="font-family:'ArialMT', 'Arial', sans-serif;font-size:72px;fill:white;">B</text>
    </g>
    <g transform="matrix(1,0,0,1,-46.2222,91.784)">
        <text x="111.942px" y="256px" style="font-family:'ArialMT', 'Arial', sans-serif;font-size:72px;">F</text>
    </g>
    <g transform="matrix(1,0,0,1,129.198,91.784)">
        <text x="105.167px" y="256px" style="font-family:'ArialMT', 'Arial', sans-serif;font-size:72px;">Y</text>
    </g>
    <g transform="matrix(1,0,0,1,295.111,91.784)">
        <text x="121.554px" y="256px" style="font-family:'ArialMT', 'Arial', sans-serif;font-size:72px;">I</text>
    </g>
</svg>
